<svg xmlns="http://www.w3.org/2000/svg" xmlns:xlink="http://www.w3.org/1999/xlink" viewBox="0 0 320 360" data-background-color="#ffffff" preserveAspectRatio="xMidYMid meet" height="360" width="320"><g id="tight-bounds" transform="matrix(1,0,0,1,0,0)"><svg viewBox="0 0 320 360" height="360" width="320"><g><svg/></g><g><svg viewBox="0 0 320 360" height="360" width="320"><g><path xmlns="http://www.w3.org/2000/svg" d="M20.961 227.22l3.726 4.658-1.863-6.056c-0.466-2.795-3.726 0.466-1.863 1.398M25.153 224.425c1.397 2.329 2.795 4.658 2.795 6.987 0 3.261 2.795 4.658 5.123 5.589-3.261-3.726-5.124-13.974-7.918-12.576M204.017 26.929c7.918 0 15.371-0.932 23.756 0.931 20.495 5.124 37.729 15.371 49.374 29.811l32.606 52.169c1.397 13.042 4.192 27.482 3.726 43.319 3.261 0 2.795-4.658 6.521-5.59-3.726 9.316-5.59 20.961-6.521 34.469-2.329-7.453 0-18.632 0.466-24.687-3.261 5.124-5.124 1.397-5.124-0.932 0.466-3.726-1.397-3.261-2.795-4.658-5.124-4.658-8.384-9.782-12.11-17.7 2.329-6.055 2.795-14.905-4.658-19.563-2.329-1.397-5.124-3.726-6.521-7.453-1.863-5.124-5.124-11.179-4.193-19.097 0.466-2.329-6.987 5.124-11.179 1.863-18.166-12.576-36.332-27.016-58.224-39.127-11.645 0-20.029-4.192-24.221-9.316-3.726-4.658-0.932-10.713 4.658-11.179 3.261 0 6.987-0.932 9.782 0.932 0.466-1.863 2.329-4.192 4.657-4.192M157.904 16.215l0.932 0.466c4.658 0.932 6.987 7.453 12.11 5.124 0 3.261 0.466 6.521-0.466 8.85-1.397 3.726-5.59 3.726-8.85 3.726-31.208-1.863-49.374 11.179-68.471 22.358-5.124 3.261-10.713 5.59-14.906 9.782-20.029 18.632-41.921 35.866-47.045 70.335l-4.192 38.195c-0.466 4.192-5.124 8.384-4.192 13.508l3.26 22.824c-3.261-3.261-5.124 0.932-4.192 2.795 0.466 1.397 2.329 6.055 5.124 1.863 3.726 6.987 7.453 20.495 12.576 26.55 15.837 18.632 36.332 35.4 53.101 52.169 4.192-0.932 7.453-0.932 8.384-3.727 1.397 2.795-1.397 5.59-3.726 6.056 7.453 4.658 15.837 8.85 27.016 9.781 14.44 0.932 27.948 3.261 40.524 6.522 6.521-1.863 13.042-2.795 20.029-3.261 2.329 0 3.726-3.726 6.521-4.658l0.466-4.658c2.795 4.192 2.329-1.397 0.466-4.192 3.261 2.795 4.192 5.124 5.589 6.987 0-1.397 3.726-6.521 3.727-0.466l0.931-6.055c1.397-0.932 1.863 5.124 3.261 0.931 1.397-4.192 4.192-0.932 6.987-2.329-0.932 1.863-0.466 5.59 2.794 3.261l3.727-3.261c2.329 5.59 6.055 3.261 7.918 2.329 20.495-13.042 40.99-28.413 60.553-43.784l-0.466 6.055 2.329-7.453c2.329 2.329 4.192 0.466 5.124-0.931 2.795-4.658 6.521-9.316 12.577-13.508-7.453 20.029-16.303 35.866-27.482 48.908l-4.658 5.59c0 3.261-0.932 7.453-4.658 7.918-1.863 0.466-5.59-0.932-8.384 1.863-1.397 1.863 3.261 5.59-0.466 2.795-3.261-2.329-6.521 0-10.248 0.932-2.795 0.932 1.863 3.726 2.795 5.589 0.932 1.863 1.863 3.726 1.398 6.056l-5.124-5.59c-6.055 3.261-9.782 9.316-14.906 13.974-2.329 1.863-1.397 5.124-1.397 7.918-3.261 0-6.987-0.932-8.85 0.932-1.397 1.863-0.932 4.658-0.932 7.453-4.658-0.466-5.124-7.453-9.315-6.056-4.192 0.932-8.85 1.397-12.577 3.727 2.795 5.59-4.658 2.329-3.726 3.26-6.987-4.192-13.042-7.453-20.495-4.658-15.837-5.124-35.4-2.795-49.84-0.931 0-2.329 0.466-4.658-0.466-5.124-0.932 2.329-3.726 1.397-3.26 1.397-8.85-6.055-17.7-9.782-27.016-14.905-8.384 0.932-16.303-3.261-18.632-5.59-6.521-6.055-13.974-2.795-20.029-4.192-13.042-3.261-17.7-16.769-19.098-26.084-0.932-4.658-4.658-6.521-6.055-6.056-6.055-19.563-15.371-37.263-22.824-55.429-1.863-4.658-1.397-9.316-1.397-14.44 2.329 0.932 4.658 0.466 4.192-2.794-2.329-15.371-7.918-27.016-13.974-38.195 3.261-15.837 3.726-34.469 11.179-48.443 6.521-12.576 18.632-19.098 27.016-29.811 2.795-3.726 2.795-8.85 5.59-12.11 9.316-9.316 18.632-19.098 28.879-27.482 4.658-3.726 10.247 0 17.234-1.397 2.329-8.384 11.645-15.837 20.495-13.508 3.726 0.932 11.179-8.85 13.508-9.782 3.726-1.397 1.863 3.726 1.863 6.987 8.85-6.987 20.961-10.713 32.14-14.906" fill="#ff0000" fill-rule="nonzero" stroke="none" stroke-width="1" stroke-linecap="butt" stroke-linejoin="miter" stroke-miterlimit="10" stroke-dasharray="" stroke-dashoffset="0" font-family="none" font-weight="none" font-size="none" text-anchor="none" style="mix-blend-mode: normal" data-fill-palette-color="tertiary"/></g><g transform="matrix(1,0,0,1,64,129.8841194882155)"><svg viewBox="0 0 192 100.23176102356902" height="100.23176102356902" width="192"><g><svg viewBox="0 0 192 100.23176102356902" height="100.23176102356902" width="192"><g><svg viewBox="0 0 192 100.23176102356902" height="100.23176102356902" width="192"><g transform="matrix(1,0,0,1,0,60.581929373737374)"><svg viewBox="0 0 192 39.64983164983165" height="39.64983164983165" width="192"><g id="textblocktransform"><svg viewBox="0 0 192 39.64983164983165" height="39.64983164983165" width="192" id="textblock"><g><svg viewBox="0 0 192 39.64983164983165" height="39.64983164983165" width="192"><g transform="matrix(1,0,0,1,0,0)"><svg width="192" viewBox="3.299999952316284 -35.5 222.72999572753906 46" height="39.64983164983165" data-palette-color="#ff0000"><path d="M21.35-1.15Q16.9 0.5 13.05 0.5L13.05 0.5Q8.7 0.5 6-1.8 3.3-4.1 3.3-9.15L3.3-9.15 3.3-25.2Q3.3-29 4.38-30.95 5.45-32.9 7.65-34.25L7.65-34.25Q9.85-35.5 13.05-35.5L13.05-35.5Q16.95-35.5 20.1-33.85L20.1-33.85 19.3-31.95Q16.45-33 13.9-33L13.9-33Q10.85-33 8.47-31.5 6.1-30 6.1-25.65L6.1-25.65 6.1-9.25Q6.1-5.8 7.9-3.93 9.7-2.05 13.3-2.05L13.3-2.05Q16.45-2.05 20.75-3.5L20.75-3.5 21.35-1.15ZM44.35-9.2Q44.35-5 42.05-2.25 39.75 0.5 35.1 0.5L35.1 0.5Q30.45 0.5 28.07-2.27 25.7-5.05 25.7-9.2L25.7-9.2 25.7-15.8Q25.7-20.55 28.12-23.08 30.55-25.6 35.1-25.6L35.1-25.6Q39.45-25.6 41.9-22.98 44.35-20.35 44.35-15.8L44.35-15.8 44.35-9.2ZM41.55-15.8Q41.55-19.55 39.82-21.3 38.1-23.05 35.1-23.05L35.1-23.05Q32-23.05 30.25-21.3 28.5-19.55 28.5-15.8L28.5-15.8 28.5-8.7Q28.5-5.7 30.27-3.85 32.05-2 35.1-2L35.1-2Q38.2-2 39.87-3.83 41.55-5.65 41.55-8.7L41.55-8.7 41.55-15.8ZM78.34 0L78.34-17.15Q78.34-20.15 76.77-21.55 75.2-22.95 72.7-22.95L72.7-22.95Q70.75-22.95 68.34-22.1L68.34-22.1 66.5-21.2Q67.34-19.5 67.34-17.3L67.34-17.3 67.34 0 64.59 0 64.59-17.15Q64.59-20.2 63.02-21.58 61.45-22.95 58.9-22.95L58.9-22.95Q57.35-22.95 55.7-22.48 54.05-22 52.7-21.25L52.7-21.25 52.7 0 49.9 0 49.9-25.05 52.7-25.05 52.45-23.45Q55.75-25.4 59.2-25.4L59.2-25.4Q61-25.4 62.57-24.8 64.15-24.2 65.25-23.05L65.25-23.05Q65.95-23.45 67.34-24.15L67.34-24.15Q70.3-25.5 73.05-25.5L73.05-25.5Q76.59-25.5 78.84-23.33 81.09-21.15 81.09-17.3L81.09-17.3 81.09 0 78.34 0ZM86.64 10.5L86.64-25.05 89.44-25.05 89.19-22.5Q90.54-23.95 92.37-24.7 94.19-25.45 95.99-25.45L95.99-25.45Q100.64-25.45 103.07-22.75 105.49-20.05 105.49-15.75L105.49-15.75 105.49-8.8Q105.49-4.25 102.94-1.83 100.39 0.6 96.19 0.6L96.19 0.6Q94.04 0.6 92.39 0 90.74-0.6 89.44-2.1L89.44-2.1 89.44 9.4 86.64 10.5ZM102.69-15.95Q102.69-19.6 100.77-21.25 98.84-22.9 96.19-22.9L96.19-22.9Q93.49-22.9 91.54-21.28 89.59-19.65 89.44-16.2L89.44-16.2 89.44-8.3Q89.44-5.05 91.29-3.5 93.14-1.95 96.19-1.95L96.19-1.95Q98.94-1.95 100.82-3.58 102.69-5.2 102.69-8.3L102.69-8.3 102.69-15.95ZM110.19 0L110.19-25.05 112.99-25.05 112.84-23.3Q115.19-25.5 118.99-25.5L118.99-25.5Q120.34-25.5 122.69-25.05L122.69-25.05 121.94-22.5Q120.34-23 118.59-23L118.59-23Q116.29-23 114.64-22.15 112.99-21.3 112.99-19.6L112.99-19.6 112.99 0 110.19 0ZM139.99-1.75Q138.19-0.6 135.89 0 133.59 0.6 131.29 0.6L131.29 0.6Q127.59 0.6 125.41-1.23 123.24-3.05 123.24-6.7L123.24-6.7 123.24-16.95Q123.24-21 125.76-23.25 128.29-25.5 132.44-25.5L132.44-25.5Q136.59-25.5 138.91-23.28 141.24-21.05 141.24-17.1L141.24-17.1 141.24-10.6 126.04-9.75 126.04-6.7Q126.04-4.3 127.59-3.1 129.14-1.9 131.64-1.9L131.64-1.9Q135.14-1.9 138.89-3.9L138.89-3.9 139.99-1.75ZM138.44-17.45Q138.44-20.55 136.49-21.83 134.54-23.1 132.39-23.1L132.39-23.1Q129.64-23.1 127.84-21.6 126.04-20.1 126.04-16.9L126.04-16.9 126.04-12.5 138.44-13.1 138.44-17.45ZM147.64-6.35Q147.94-4.1 149.89-2.98 151.84-1.85 154.24-1.85L154.24-1.85Q156.49-1.85 158.34-2.88 160.19-3.9 160.19-6.2L160.19-6.2Q160.19-7.7 159.31-8.68 158.44-9.65 157.14-10.25 155.84-10.85 153.64-11.55L153.64-11.55Q151.19-12.35 149.64-13.05 148.09-13.75 146.94-15.03 145.79-16.3 145.59-18.25L145.59-18.25 145.54-18.85Q145.54-20.5 146.46-22.08 147.39-23.65 149.31-24.65 151.24-25.65 154.14-25.65L154.14-25.65Q155.74-25.65 156.96-25.33 158.19-25 158.89-24.65 159.59-24.3 159.74-24.2L159.74-24.2 158.79-21.9Q158.64-22 158.06-22.3 157.49-22.6 156.44-22.9 155.39-23.2 154.14-23.2L154.14-23.2Q151.74-23.2 150.04-22.08 148.34-20.95 148.34-18.95L148.34-18.95Q148.34-17.05 149.89-16.05 151.44-15.05 154.64-14.05L154.64-14.05Q157.34-13.15 158.99-12.35 160.64-11.55 161.81-10.08 162.99-8.6 162.99-6.25L162.99-6.25Q162.99-3.25 160.76-1.25 158.54 0.75 154.24 0.75L154.24 0.75Q151.39 0.75 149.31-0.23 147.24-1.2 146.16-2.8 145.09-4.4 144.99-6.35L144.99-6.35 147.64-6.35ZM169.18-6.35Q169.48-4.1 171.43-2.98 173.38-1.85 175.78-1.85L175.78-1.85Q178.03-1.85 179.88-2.88 181.73-3.9 181.73-6.2L181.73-6.2Q181.73-7.7 180.86-8.68 179.98-9.65 178.68-10.25 177.38-10.85 175.18-11.55L175.18-11.55Q172.73-12.35 171.18-13.05 169.63-13.75 168.48-15.03 167.33-16.3 167.13-18.25L167.13-18.25 167.08-18.85Q167.08-20.5 168.01-22.08 168.93-23.65 170.86-24.65 172.78-25.65 175.68-25.65L175.68-25.65Q177.28-25.65 178.51-25.33 179.73-25 180.43-24.65 181.13-24.3 181.28-24.2L181.28-24.2 180.33-21.9Q180.18-22 179.61-22.3 179.03-22.6 177.98-22.9 176.93-23.2 175.68-23.2L175.68-23.2Q173.28-23.2 171.58-22.08 169.88-20.95 169.88-18.95L169.88-18.95Q169.88-17.05 171.43-16.05 172.98-15.05 176.18-14.05L176.18-14.05Q178.88-13.15 180.53-12.35 182.18-11.55 183.36-10.08 184.53-8.6 184.53-6.25L184.53-6.25Q184.53-3.25 182.31-1.25 180.08 0.75 175.78 0.75L175.78 0.75Q172.93 0.75 170.86-0.23 168.78-1.2 167.71-2.8 166.63-4.4 166.53-6.35L166.53-6.35 169.18-6.35ZM208.83-9.2Q208.83-5 206.53-2.25 204.23 0.5 199.58 0.5L199.58 0.5Q194.93 0.5 192.56-2.27 190.18-5.05 190.18-9.2L190.18-9.2 190.18-15.8Q190.18-20.55 192.61-23.08 195.03-25.6 199.58-25.6L199.58-25.6Q203.93-25.6 206.38-22.98 208.83-20.35 208.83-15.8L208.83-15.8 208.83-9.2ZM206.03-15.8Q206.03-19.55 204.31-21.3 202.58-23.05 199.58-23.05L199.58-23.05Q196.48-23.05 194.73-21.3 192.98-19.55 192.98-15.8L192.98-15.8 192.98-8.7Q192.98-5.7 194.76-3.85 196.53-2 199.58-2L199.58-2Q202.68-2 204.36-3.83 206.03-5.65 206.03-8.7L206.03-8.7 206.03-15.8ZM213.53 0L213.53-25.05 216.33-25.05 216.18-23.3Q218.53-25.5 222.33-25.5L222.33-25.5Q223.68-25.5 226.03-25.05L226.03-25.05 225.28-22.5Q223.68-23 221.93-23L221.93-23Q219.63-23 217.98-22.15 216.33-21.3 216.33-19.6L216.33-19.6 216.33 0 213.53 0Z" opacity="1" transform="matrix(1,0,0,1,0,0)" fill="#ff0000" class="wordmark-text-0" data-fill-palette-color="primary" id="text-0"/></svg></g></svg></g></svg></g></svg></g><g transform="matrix(1,0,0,1,72.31211672278339,0)"><svg viewBox="0 0 47.37576655443322 54.79606734006734" height="54.79606734006734" width="47.37576655443322"><g><svg xmlns="http://www.w3.org/2000/svg" xmlns:xlink="http://www.w3.org/1999/xlink" version="1.1" x="0" y="0" viewBox="9 1 83 96" enable-background="new 0 0 100 100" xml:space="preserve" height="54.79606734006734" width="47.37576655443322" class="icon-icon-0" data-fill-palette-color="accent" id="icon-0"><g fill="#ed2647" data-fill-palette-color="accent"><path fill="#ed2647" d="M71.3 10.01C57.831 10.01 50.55 1 50.55 1s-7.306 9.01-20.774 9.01C17.371 10.01 9 2.528 9 2.528v48.928C9.378 83.682 50.5 97 50.5 97S92 83.682 92 51.456V2.528C92 2.528 83.703 10.01 71.3 10.01z" data-fill-palette-color="accent"/></g></svg></g></svg></g><g/></svg></g></svg></g></svg></g></svg></g><defs/></svg><rect width="320" height="360" fill="none" stroke="none" visibility="hidden"/></g></svg>